<?xml version="1.0" encoding="UTF-8"?>
<!DOCTYPE svg PUBLIC "-//W3C//DTD SVG 1.1//EN" "http://www.w3.org/Graphics/SVG/1.1/DTD/svg11.dtd">
<svg version="1.1" xmlns="http://www.w3.org/2000/svg" xmlns:xlink="http://www.w3.org/1999/xlink" x="0" y="0" width="390" height="390" viewBox="0, 0, 390, 390">
  <g id="Background">
    <rect x="0" y="0" width="390" height="390" fill="#000000" fill-opacity="0"/>
  </g>
  <g id="Layer_1">
    <path d="M195.5,376.5 C95.536,376.5 14.5,295.464 14.5,195.5 C14.5,95.536 95.536,14.5 195.5,14.5 C295.464,14.5 376.5,95.536 376.5,195.5 C376.5,295.464 295.464,376.5 195.5,376.5 z" fill-opacity="0" stroke="#FFFFFF" stroke-width="9"/>
    <path d="M196.695,237.676 C198.548,247.897 186.924,288.757 187.054,294.508" fill-opacity="0" stroke="#FFFFFF" stroke-width="6" stroke-linecap="round" stroke-linejoin="round"/>
    <path d="M210.088,239.801 C213.808,255.476 216.044,278.975 219.766,292.559" fill-opacity="0" stroke="#FFFFFF" stroke-width="5" stroke-linecap="round" stroke-linejoin="round"/>
    <path d="M177.725,239.315 C177.998,246.543 180.869,255.196 187.862,258.498" fill-opacity="0" stroke="#FFFFFF" stroke-width="5" stroke-linecap="round" stroke-linejoin="round"/>
    <path d="M227.404,236.581 C223.738,243.633 224.733,251.432 220.197,257.771" fill-opacity="0" stroke="#FFFFFF" stroke-width="5" stroke-linecap="round" stroke-linejoin="round"/>
    <path d="M218.512,200.789 C217.391,211.343 223.247,218.44 225.57,226.917" fill-opacity="0" stroke="#FFFFFF" stroke-width="5" stroke-linecap="round" stroke-linejoin="round"/>
    <path d="M214.066,200.889 C211.822,201.701 185.908,203.778 185.827,203.951 C184.709,206.318 186.337,209.646 185.2,212.053 C182.884,216.958 178.513,227.322 175.504,230.468" fill-opacity="0" stroke="#FFFFFF" stroke-width="5" stroke-linecap="round" stroke-linejoin="round"/>
    <path d="M184.429,321.661 C170.728,284.997 197.49,310.46 211.964,305.271 C215.595,303.969 221.846,298.419 225.992,299.698 C230.45,301.074 226.325,315.508 225.189,317.914" fill-opacity="0" stroke="#FFFFFF" stroke-width="5" stroke-linecap="round" stroke-linejoin="round"/>
    <path d="M215.603,318.736 C218.417,318.948 222.772,309.869 220.511,307.707 C219.02,306.282 215.247,316.416 215.279,317.834 C215.423,324.244 222.082,336.78 221.185,337.719 C215.367,343.804 206.561,336.388 199.965,338.196 C197.008,339.006 191.565,341.875 188.507,341.183 C187.494,340.954 193.573,330.457 193.988,328.624 C194.865,324.745 194.881,306.8 187.778,308.746 C183.762,309.847 192.548,318.064 193.17,319.241" fill-opacity="0" stroke="#FFFFFF" stroke-width="5" stroke-linecap="round" stroke-linejoin="round"/>
    <path d="M188.109,309.952 C190.104,311.028 190.845,313.099 191.862,315.024" fill-opacity="0" stroke="#FFFFFF" stroke-width="5" stroke-linecap="round" stroke-linejoin="round"/>
    <path d="M186.695,233.553 C174.811,231.819 185.478,240.821 187.638,235.048" fill-opacity="0" stroke="#FFFFFF" stroke-width="9" stroke-linecap="round" stroke-linejoin="round"/>
    <path d="M220.923,231.571 C206.916,230.343 222.468,246.342 222.156,232.453" fill-opacity="0" stroke="#FFFFFF" stroke-width="9" stroke-linecap="round" stroke-linejoin="round"/>
    <path d="M218.869,234.65 L218.572,234.96" fill-opacity="0" stroke="#FFFFFF" stroke-width="9" stroke-linecap="round" stroke-linejoin="round"/>
    <path d="M219.559,202.384 C229.731,198.286 242.457,191.306 249.555,187.555" fill-opacity="0" stroke="#FFFFFF" stroke-width="5" stroke-linecap="round" stroke-linejoin="round"/>
    <path d="M255.119,192.688 C244.924,171.863 222.345,159.609 214.236,136.991 C211.605,129.65 222.419,134.408 224.35,137.168 C226.399,140.096 242.418,166.258 247.53,160.911 C250.863,157.424 234.494,101.382 250.169,116.368 C252.347,118.45 262.236,155.711 264.543,162.146 C265.074,163.627 263.681,169.937 265.138,170.625 C266.876,171.446 266.564,161.232 266.922,160.07 C269.966,150.207 263.558,135.911 260.528,127.458 C258.112,120.72 260.919,97.676 265.414,92.975 C267.702,90.582 273.115,90.467 274.997,87.502 C278.011,82.753 267.731,72.451 276.609,69.268 C282.723,67.076 282.171,74.094 285.242,75.544 C288.727,77.19 293.861,65.418 299.225,67.951 C303.741,70.083 296.983,79.962 299.607,84.927 C305.187,95.486 295.499,111.685 292.727,120.668 C291.446,124.819 292.299,129.426 290.997,133.648 C283.092,159.268 283.5,169.942 268.485,193.6 C264.024,200.629 245.053,204.458 234.996,214.977" fill-opacity="0" stroke="#FFFFFF" stroke-width="5" stroke-linecap="round" stroke-linejoin="round"/>
    <path d="M274.374,86.303 C277.072,98.005 279.342,109.407 279.629,122.176" fill-opacity="0" stroke="#FFFFFF" stroke-width="5" stroke-linecap="round" stroke-linejoin="round"/>
    <path d="M278.848,123.407 C265.678,113.882 272.294,141.611 270.491,147.454 C268.473,153.996 268.089,160.515 265.673,166.973" fill-opacity="0" stroke="#FFFFFF" stroke-width="5" stroke-linecap="round" stroke-linejoin="round"/>
    <path d="M184.008,203.991 C172.566,200.61 160.3,198.395 149.802,193.437" fill-opacity="0" stroke="#FFFFFF" stroke-width="5" stroke-linecap="round" stroke-linejoin="round"/>
    <path d="M138.801,180.339 C138.995,174.185 135.589,166.901 137.548,160.552 C140.877,149.761 151.098,106.569 143.783,96.113 C138.362,88.364 122.348,85.619 113.968,83.034 C111.937,82.407 107.735,83.288 106.765,86.431 C106.326,87.853 107.949,90.852 106.461,90.886 C105.471,90.908 99.013,83.391 99.186,91.049 C99.193,91.402 96.505,76.892 90.911,82.743 C81.575,92.508 118.498,182.245 126.122,191.947" fill-opacity="0" stroke="#FFFFFF" stroke-width="5" stroke-linecap="round" stroke-linejoin="round"/>
    <path d="M145.981,203.835 C146.446,196.077 152.101,189.201 154.382,181.809 C155.603,177.854 159.012,171.885 158.924,167.957 C158.802,162.531 163.234,154.978 161.344,149.705 C160.218,146.564 157.264,144.458 154.418,147.434 C149.54,152.537 147.978,186.414 126.352,194.167 C124.696,194.76 120.988,198.032 119.14,197.159 C116.496,195.911 119.044,190.011 117.71,187.486 C115.071,182.492 108.112,193.674 105.557,186.546 C102.124,176.971 105.186,139.404 104.889,138.842 C103.095,135.448 102.786,127.275 95.016,131.381 C90.889,133.561 93.437,143.436 92.146,147.621 C89.237,157.046 86.606,177.631 90.216,187.7 C91.505,191.297 95.965,194.323 97.718,197.641 C99.368,200.763 100.036,204.603 102.787,207.232 C105.537,209.862 112.493,206.214 116.134,207.337 C122.932,209.434 130.18,211.269 136.893,213.341 C153.075,218.333 166.006,207.677 176.436,227.414" fill-opacity="0" stroke="#FFFFFF" stroke-width="5" stroke-linecap="round" stroke-linejoin="round"/>
  </g>
</svg>
